<?xml version="1.0" encoding="utf-8"?>
<!-- Generator: Adobe Illustrator 16.0.0, SVG Export Plug-In . SVG Version: 6.00 Build 0)  -->
<!DOCTYPE svg PUBLIC "-//W3C//DTD SVG 1.1//EN" "http://www.w3.org/Graphics/SVG/1.1/DTD/svg11.dtd">
<svg version="1.1" id="Layer_1" xmlns="http://www.w3.org/2000/svg" xmlns:xlink="http://www.w3.org/1999/xlink" x="0px" y="0px"
	 width="960px" height="560px" viewBox="0 0 960 560" enable-background="new 0 0 960 560" xml:space="preserve">
<title>1227</title>
<g>
	<path fill="#434343" d="M613.939,263.53l100.306-100.273c13.835-13.868,13.835-36.334,0-50.136L613.939,12.814
		c-13.836-13.835-36.302-13.835-50.17,0L463.497,113.087L363.223,12.814c-13.868-13.835-36.334-13.835-50.169,0L212.781,113.12
		c-13.901,13.835-13.901,36.301-0.033,50.136L313.021,263.53L212.748,363.802c-13.868,13.868-13.868,36.334,0.033,50.17
		l100.273,100.272c13.835,13.868,36.301,13.868,50.169,0l100.273-100.272l100.272,100.272c13.868,13.868,36.334,13.868,50.17,0
		l100.306-100.272c13.835-13.868,13.835-36.335,0-50.17L613.939,263.53L613.939,263.53z"/>
</g>
</svg>
