<?xml version="1.0" encoding="utf-8"?>
<!-- Generator: Adobe Illustrator 16.0.0, SVG Export Plug-In . SVG Version: 6.00 Build 0)  -->
<!DOCTYPE svg PUBLIC "-//W3C//DTD SVG 1.1//EN" "http://www.w3.org/Graphics/SVG/1.1/DTD/svg11.dtd">
<svg version="1.1" id="Layer_1" xmlns="http://www.w3.org/2000/svg" xmlns:xlink="http://www.w3.org/1999/xlink" x="0px" y="0px"
	 width="960px" height="560px" viewBox="0 0 960 560" enable-background="new 0 0 960 560" xml:space="preserve">
<title>1227</title>
<g>
	<path fill="#434343" d="M560.684,375.389l128.007-0.658c17.68-0.114,32.135-14.527,32.259-32.163l1.048-128.027
		c0.145-17.658-14.077-31.919-31.756-31.847l-127.984,0.678l1.05-127.983c0.121-17.679-14.098-31.941-31.757-31.847l-128.007,0.699
		c-17.7,0.052-32.155,14.464-32.278,32.143l-1.049,127.984l-127.985,0.678c-17.701,0.093-32.155,14.506-32.259,32.207
		l-1.047,127.981c-0.167,17.68,14.053,31.942,31.754,31.849l127.985-0.678l-1.048,127.981c-0.145,17.7,14.074,31.963,31.756,31.848
		l128.007-0.655c17.68-0.115,32.134-14.528,32.276-32.187L560.684,375.389L560.684,375.389z"/>
</g>
</svg>
